<svg xmlns="http://www.w3.org/2000/svg" viewBox="0 0 180 50">
    <path d="M12.6 26.7h11.3v.9l-.8.1c-.4 0-.8.1-1 .1l-.8.1c-.4.1-.4.1-.5.4-.1.4-.1.9-.1 1.5 0 .4 0 .7.1 1.3-.3.3-.5.6-.8.8-2 2.1-4.7 3.1-8.1 3.1-3.5 0-6.7-1.2-8.7-3.3-1.9-2-3.2-5.6-3.2-8.8C0 16.1 5.1 11 11.7 11c1.6 0 3.6.4 5.7 1 .9.3 1 .3 1.3.3.3 0 .5-.1.8-.5h.8l.9 7.6h-.9c-.3-.6-.5-1.1-.7-1.4-1.3-2.9-1.7-3.6-2.5-4.3-1-.9-2.9-1.5-4.8-1.5-2.1 0-4.1.8-5.2 2.1C5.9 16 5 19.2 5 22.6c0 6.6 3.3 11 8.1 11 1.3 0 2.3-.3 2.8-.8s.7-1.2.7-2.7c0-1-.1-1.8-.3-2-.2-.3-1.3-.4-3.8-.6v-.8zm33.1-.1c0 4.6-3.8 8.4-8.5 8.4-4.8 0-8.7-3.8-8.7-8.4 0-4.7 3.8-8.5 8.5-8.5 4.8 0 8.7 3.8 8.7 8.5zm-3.5-.2c0-4.1-2.3-7.5-5.2-7.5-2.9 0-5 3.2-5 7.6 0 4.3 2.3 7.6 5.2 7.6 2.8 0 5-3.2 5-7.7zm24.6.2c0 4.6-3.8 8.4-8.5 8.4-4.8 0-8.7-3.8-8.7-8.4 0-4.7 3.8-8.5 8.5-8.5 4.8 0 8.7 3.8 8.7 8.5zm-3.5-.2c0-4.1-2.3-7.5-5.2-7.5-2.9 0-5 3.2-5 7.6 0 4.3 2.3 7.6 5.2 7.6 2.8 0 5-3.2 5-7.7zm25.4.8c0 2.3-.8 4.5-2 5.8-.6.7-1.5 1.2-2.5 1.6-.9.3-1.5.4-2.7.4H70.8v-.6l2.8-.2c.3 0 .4-.1.4-.3 0-.2.1-.4.1-.5 0-.3.1-.6.1-1V21.3c0-.7-.1-1.1-.2-1.5 0-.2-.1-.2-.4-.3l-2.3-.2v-.6h8.4c1.7 0 2.9.2 4.2.6 2.9 1 4.8 4.1 4.8 7.9zm-3.6-.2c0-2.3-.6-4.4-1.7-5.8-1-1.2-1.9-1.6-4.6-1.6-.4 0-.7 0-1.3.1-.1 1.3-.2 1.8-.2 2.7v9.1c0 .9 0 1.4.2 2.6l.4.1h1.4c.9 0 1.4-.1 2.1-.3 2.2-.8 3.7-3.5 3.7-6.9zm24.4-7.6c1.6.1 2.3.3 2.6.4.2.1.3.4.3.8 0 .2 0 .5-.2.9-.2.8-.5 1.7-.7 2L109 30c-.5-1.2-.6-1.5-1.5-3.9l-1.3-3.4-.4-1.1h-.8l-3.3 8.5-3.4-9.1c-.2-.4-.2-.6-.2-.7 0-.4.3-.6.9-.7.4-.1.8-.1 1.7-.1v-.6h-9.3v.6c1.6.1 2.4.3 2.8.6.2.2.5.7.8 1.3.1.2.2.5.4 1l4.9 12.6h.6l3.4-8.7 3.4 8.7h.6c.9-2.6 1.3-3.5 2.5-6.4l1.6-4c1.3-3.2 1.9-4.4 2.2-4.7.4-.3 1-.4 2.5-.5v-.6h-7.7l.1.6zm26.8 7.2c0 4.6-3.8 8.4-8.5 8.4-4.8 0-8.7-3.8-8.7-8.4 0-4.7 3.8-8.5 8.5-8.5 4.8 0 8.7 3.8 8.7 8.5zm-3.5-.2c0-4.1-2.3-7.5-5.2-7.5-2.9 0-5 3.2-5 7.6 0 4.3 2.3 7.6 5.2 7.6 2.8 0 5-3.2 5-7.7zm25.4.2c0 4.6-3.8 8.4-8.5 8.4-4.8 0-8.7-3.8-8.7-8.4 0-4.7 3.8-8.5 8.5-8.5 4.8 0 8.7 3.8 8.7 8.5zm-3.6-.2c0-4.1-2.3-7.5-5.2-7.5-2.9 0-5 3.2-5 7.6 0 4.3 2.3 7.6 5.2 7.6 2.9 0 5.1-3.2 5-7.7zm25.4.8c0 2.3-.8 4.5-2 5.8-.6.7-1.5 1.2-2.5 1.6-.9.3-1.5.4-2.7.4h-10.7v-.6l2.9-.2c.3 0 .4-.1.4-.3 0-.2.1-.4.1-.5 0-.3.1-.6.1-1V21.3c0-.7-.1-1.1-.2-1.5-.1-.2-.1-.2-.4-.3l-2.3-.2v-.6h8.4c1.7 0 2.9.2 4.2.6 2.8 1 4.7 4.1 4.7 7.9zm-3.6-.2c0-2.3-.6-4.4-1.7-5.8-1-1.2-1.9-1.6-4.6-1.6-.4 0-.7 0-1.3.1-.1 1.3-.2 1.8-.2 2.7v9.1c0 .9 0 1.4.2 2.6l.4.1h1.4c.9 0 1.4-.1 2.1-.3 2.3-.8 3.7-3.5 3.7-6.9z"/>
</svg>
