<svg  xmlns="http://www.w3.org/2000/svg" xmlns:xlink="http://www.w3.org/1999/xlink" width="0" height="0" fill="#000">
    <symbol viewBox="0 0 150 100" id="discord">
        <path d="M14.3 46c-1.2 0-2.1 1.2-2.1 2.8s1 2.8 2.1 2.8c1.2 0 2.1-1.2 2.1-2.8.1-1.6-.9-2.8-2.1-2.8z"/><path d="M96.3 51.2l4.1 2.3c-1.5 3.6-4.3 5-6.6 5-3.6 0-7.2-2.5-7.2-7.6v-7.7c0-5 3.6-7.6 7.3-7.6 2.3 0 5 1.2 6.4 5.1l-3.8 1.9c-1.2-2.8-5.3-2.1-5.3.6v7.7c-.1 2.6 4.1 3.4 5.1.3zm20.5-8v7.6c0 5.1-3.8 7.7-7.6 7.7s-7.6-2.6-7.6-7.7v-7.6c0-5.2 3.8-7.7 7.6-7.7s7.6 2.5 7.6 7.7zm-4.6 0c0-1.7-1.5-2.5-3-2.5-1.4 0-2.9.9-2.9 2.5v7.6c0 1.7 1.5 2.4 3 2.4s3-.8 3-2.4v-7.6zM21.9 46c-1.2 0-2.1 1.2-2.1 2.8s1 2.8 2.1 2.8c1.2 0 2.1-1.2 2.1-2.8S23 46 21.9 46zm56.7-1.8c-1.4-.4-2.4-1-2.4-2.1.1-2.6 3.4-2.7 5.3-.2l3-2.8c-1.9-2.8-4.1-3.6-6.3-3.6-3.4 0-6.6 2.3-6.6 6.7 0 4.3 2.7 6.6 5.6 7.1 1.5.3 3.2 1 3.1 2.2-.1 2.4-4.2 2.3-6-.5l-2.9 3.4c1.7 2.7 4.1 4.1 6.2 4.1 3.4 0 7.1-2.4 7.3-6.7.3-5.5-3-6.9-6.3-7.6zm64.3-8.4H136v9.4l4.6 5v-9.1h2.4c1.6 0 2.3.9 2.3 2.4v7c0 1.5-.7 2.4-2.3 2.4h-7v5.3h6.9c3.7 0 7.1-2.2 7.1-7.4v-7.5c0-5.2-3.5-7.5-7.1-7.5zm-13.1 14.7l5 7.7H129l-4.3-7.1h-.7v7.1h-4.7V35.8h7.3c3.8 0 6.7 2.1 6.8 7.4 0 4.1-1.3 6.5-3.6 7.3zm-3.1-9.4H124v5.1h2.7c2.9 0 2.9-5.1 0-5.1zM64.8 58.2h4.6V35.8h-4.6v22.4zm-28.6-28V75l-4.5-4.7-2.5-2.8-2.6-3 1.1 4.6H4.2C1.9 69.1 0 66.8 0 64V30.2C0 27.3 1.9 25 4.2 25h27.7c2.4 0 4.3 2.3 4.3 5.2zm-5.9 23.7c0-8-3-14.6-3-14.6-3-2.7-5.8-2.6-5.8-2.6l-.3.4c3.5 1.3 5.1 3.2 5.1 3.2-2.1-1.4-4.3-2.1-6.2-2.4-1.5-.2-2.9-.2-4.2.1-.1 0-.2 0-.4.1-.7.1-2.5.4-4.7 1.6-.8.4-1.2.7-1.2.7s1.7-2 5.4-3.3l-.2-.3S12 36.7 9 39.4c0 0-3 6.5-3 14.6 0 0 1.7 3.6 6.3 3.8 0 0 .8-1.1 1.4-2.1-2.6-1-3.6-3-3.6-3s.2.2.6.4l.1.1c.1.1.1.1.2.1.5.4 1 .6 1.5.9.8.4 1.9.8 3 1.1 1.6.4 3.4.5 5.4 0 1-.2 2-.6 3-1.1.7-.3 1.5-.8 2.4-1.5 0 0-1 2-3.7 3 .6.9 1.4 2 1.4 2 4.5-.2 6.3-3.9 6.3-3.8zm24.9-18.1h-6.9v9.4l4.6 5v-9.1h2.4c1.6 0 2.3.9 2.3 2.4v7c0 1.5-.7 2.4-2.3 2.4h-7v5.3h6.9c3.7 0 7.1-2.2 7.1-7.4v-7.5c0-5.2-3.4-7.5-7.1-7.5z"/>
    </symbol>
    <symbol viewBox="0 0 150 100" id="apple">
        <path d="M102.4 12.8c-7.5 0-13.1 3.5-13.3 8.3h6.4c.5-2.3 3.1-3.8 6.7-3.8 4.3 0 6.8 1.6 6.8 4.7v2l-8.8.4c-8.2.4-12.7 3.1-12.7 7.9 0 4.8 4.6 8 11.2 8 4.5 0 8.6-1.8 10.5-4.7h.1V40h6.6V21.6c-.1-5.4-5.4-8.8-13.5-8.8zM109 30c0 3.5-3.6 5.9-8.4 5.9-3.8 0-6.2-1.5-6.2-3.7 0-2.3 2.3-3.7 6.7-3.9l7.9-.4V30zM20 9.4c-.4-2.3 1-4.7 2.6-6.2 1.8-1.7 4.8-3 7.3-3.1.3 2.4-.8 4.7-2.6 6.4-1.7 1.7-4.5 3.1-7.3 2.9zm50.6-6.5H53.5V40h7.1V27.3h9.8c9 0 15.3-5 15.3-12.2S79.5 2.9 70.6 2.9zm-1.9 19.6h-8.1V7.8h8.2c6.2 0 9.7 2.7 9.7 7.4-.1 4.6-3.6 7.3-9.8 7.3zm81.3-9.4l-12.5 28.4c-2.8 6.5-6.1 8.6-13 8.6-.5 0-2.3 0-2.7-.1v-4.4c.4 0 1.5.1 2.1.1 3.1 0 4.9-1.1 6-3.9l.6-1.6-12-27h7.4l8.4 21.9h.1l8.4-21.9h7.2zM40.3 29.6c-.1.1-1 2.9-3.4 5.7-2.1 2.5-4.2 4.9-7.6 4.9-3.3 0-4.4-1.6-8.1-1.6-3.8 0-5 1.5-8.1 1.6-3.3.1-5.8-2.6-7.9-5.1C1 30.1-2.3 21 2.1 14.9c2.1-3.1 6-5 10.2-5 3.2 0 6.2 1.7 8.1 1.7 1.9 0 5.4-2.1 9.5-1.9 1.6.1 6.2.5 9.1 4-.2.1-5.4 2.6-5.4 7.7.1 6.2 6.6 8.2 6.7 8.2z"/>
    </symbol>
    <symbol  viewBox="0 0 24 24" id="rss">
        <path d="M7.8 19.1c0 1.6-1.3 2.9-2.9 2.9C3.3 22 2 20.7 2 19.1c0-1.6 1.3-2.9 2.9-2.9 1.6 0 2.9 1.3 2.9 2.9zM2.2 2H2v3.7h.2c8.9.1 16.1 7.2 16.2 16.1v.2H22v-.2C22 10.9 13.1 2.1 2.2 2zm0 6.7H2v3.7h.2c5.2.1 9.4 4.2 9.4 9.4v.2h3.7v-.2c0-7.2-5.9-13.1-13.1-13.1z"/>
    </symbol>
    <symbol  viewBox="0 0 24 24" id="vimeo">
        <path d="M18.8 2c-2.5 0-4.5 2.1-5.4 5.6.9-.6 2.6-.8 2.8.9.1 1.7-2.2 6.3-3.3 6.3s-1.8-5.1-2.1-7.4c-.2-2.4-.6-4.5-2.6-4.5S3.7 5.9 2 7.5l.9 1.4C3.4 8.4 4 8 4.7 7.8c1.2.3 2.2 5.8 2.7 7.9.5 2.1 1.1 6.3 3.7 6.3C15.2 22 22 10.5 22 6.7c0-2.5-.6-4.7-3.2-4.7z"/>
    </symbol>
    <symbol  viewBox="0 0 24 24" id="tumbler">
        <path d="M15.6 18.7c-1.4.1-2.6-.9-2.7-2.3v-6h4.3V7h-4.3V2h-3C10 4.4 8.4 6.5 6 7.1v3.2h2.6v7.2c.2 2.6 2.5 4.6 5.2 4.5 1.5.1 3-.3 4.2-1.1v-3.3c-.6.7-1.5 1.2-2.4 1.1z"/>
    </symbol>
    <symbol  viewBox="0 0 24 24" id="skype">
        <path d="M20.5 13.3c.1-.4.1-.9.1-1.3 0-4.8-3.9-8.7-8.8-8.7h-.1c-.5 0-.9.1-1.3.2-1.9-1.9-4.9-2-6.9-.2-1 1-1.6 2.4-1.5 3.8 0 1.1.4 2.1 1 3-.1.6-.2 1.3-.2 1.9 0 5 3.9 9 8.9 9.2.6 0 1.2-.1 1.8-.2 1 .7 2.1 1.1 3.3 1 2.8 0 5.1-2.3 5.1-5.1.1-1.3-.4-2.6-1.4-3.6zm-4.6 2.8c-.4.5-.9.9-1.5 1.2-.8.3-1.6.4-2.4.4-1 0-1.9-.2-2.8-.6-.5-.3-.9-.6-1.2-1.1-.3-.4-.4-.8-.5-1.3 0-.3.1-.5.3-.7.2-.2.5-.3.7-.3.2 0 .4.1.6.2.2.2.3.4.4.7.1.3.3.6.5.8.2.2.4.4.7.5.4.2.8.3 1.2.3.6 0 1.2-.2 1.6-.5.4-.2.6-.6.6-1.1 0-.3-.1-.6-.3-.8-.3-.2-.6-.4-.9-.5-.5-.1-1-.2-1.4-.3-.7-.1-1.4-.4-2-.7-.5-.2-1-.5-1.3-.9-.3-.4-.5-1-.5-1.5s.2-1.1.5-1.5c.4-.5.9-.8 1.5-1 .7-.3 1.4-.4 2.2-.4.6 0 1.2.1 1.8.2.5.2.9.4 1.3.7.3.2.6.5.7.8.1.2.2.5.2.8 0 .3-.1.5-.3.7-.2.2-.4.3-.7.3-.2 0-.4-.1-.6-.2-.2-.2-.3-.4-.4-.6-.2-.4-.4-.7-.7-.9-.4-.2-.9-.3-1.4-.3-.5 0-1 .1-1.4.3-.4.2-.6.5-.6.9 0 .2.1.4.2.5.1.2.3.3.5.4.2.1.4.2.7.3.4 0 .7.1 1.1.2.6.2 1.2.3 1.7.5s.9.4 1.3.6c.4.2.7.5.8.9.2.4.3.8.3 1.3 0 .6-.2 1.2-.5 1.7z"/>
    </symbol>
    <symbol  viewBox="0 0 24 24" id="linkedIn">
        <path d="M22 14.4V22h-4.2v-7.3-.1c0-1.6-1.2-2.9-2.6-3-1.6 0-2.4 1.5-2.4 3V22H8.7V8.6h4.1v1.8c.9-1.5 2.4-2.3 4-2.3 1.9 0 5.2 1 5.2 6.3zM4.1 2c-1.2.1-2.1 1.3-2 2.6.1 1.3 1.2 2.3 2.4 2.1 1.1-.1 2-1.1 2-2.4C6.5 3 5.4 1.9 4.1 2zM2 22h4.2V8.6H2V22z"/>
    </symbol>
    <symbol  viewBox="0 0 24 24" id="google-plus">
        <path d="M22 6.5v1.6h-2.5v2.6h-1.7V8.1h-2.5V6.5h2.5V3.8h1.7v2.7H22zm-9-2.6h-1.8c1.2 0 1.7 1.7 1.7 3.2 0 1.2-.6 2.2-1.5 2.9-.9.8-1.1 1.1-1.1 1.7.3.7.8 1.4 1.5 1.7 1.3.8 2 2.3 1.9 3.8 0 2.1-1.8 3.7-5.4 3.7-3.2.1-6.3-1-6.3-3.2 0-2.1 2.9-3.8 6-3.8h1c-.5-.4-.8-1-.8-1.6 0-.4.1-.7.3-1h-.8c-2.2 0-4-1.9-4-4.1C3.7 4.9 6 3 8.6 3h5.7l-1.3.9zm-3 10.7c-.5-.1-.9-.2-1.4-.2-2.2 0-4.1 1.3-4.1 3s1.6 2.7 3.7 2.7c3.1 0 3.9-.8 3.9-2.6 0-.2 0-.3-.1-.5-.2-1-.8-1.5-2-2.4zm1-7.5c-.3-2-1.6-3.5-3.1-3.6-1.5 0-2.5 1.5-2.2 3.4.3 2.1 1.6 3.6 3.1 3.7 1.4 0 2.4-1.5 2.2-3.5z"/>
    </symbol>
    <symbol  viewBox="0 0 24 24" id="facebook">
        <path d="M14.8 5.3H17V2h-2.8c-3.7.1-4.7 2.2-4.7 4.4v2.3H7V12h2.5v10h4.2V12h2.5l.6-3.3h-3.1V6.6c-.1-.7.4-1.3 1.1-1.3z"/>
    </symbol>
    <symbol  viewBox="0 0 24 24" id="twitter">
        <path d="M22 5.7c-.7.3-1.5.5-2.3.6.8-.5 1.4-1.3 1.7-2.3-.8.5-1.7.8-2.6.9-.8-.9-1.8-1.4-3-1.5-2.3.1-4 2-3.9 4.4 0 .4 0 .7.1 1C8.6 8.7 5.5 7 3.3 4.2c-1.1 2-.5 4.5 1.3 5.8-.6.2-1.3 0-1.8-.3-.1 2 1.3 3.8 3.2 4.2-.6.1-1.2.1-1.7 0 .5 1.7 2 2.9 3.7 2.9-1.7 1.6-3.9 2.2-6 1.8 1.9 1.3 4.2 1.9 6.5 1.9 6.4.1 11.7-5.2 11.8-11.9v-.7c.7-.6 1.3-1.4 1.7-2.2z"/>
    </symbol>
    <symbol  viewBox="0 0 24 24" id="lamp">
        <path d="M22 7.9V9h-2.4V7.9H22zm-17.6 0H2V9h2.4V7.9zm13.9 4.9l2 1.2.6-1-2-1.2-.6 1zM5.7 4.1L3.7 3l-.6 1 2 1.2.6-1.1zM20.9 4l-.6-1-2 1.2.6 1 2-1.2zM3.09 12.967l1.991-1.15.6 1.04-1.992 1.15zM18.4 8.4c0-1.9-.9-3.8-2.4-5-1.5-1.2-3.5-1.7-5.4-1.3-2.5.5-4.5 2.6-5 5.2-.5 3 1 5.6 3.4 6.9v1.9H7.9v1.2h1.2v1.2H7.9v1.2h2.3V22h3.5v-2.4H16v-1.2h-1.2v-1.2H16V16h-1.2v-1.9c2.3-1 3.6-3.2 3.6-5.7zm-5.8 12.4h-1.2v-1.3h1.2v1.3zm1.2-2.4h-3.5v-1.2h3.5v1.2zm.3-5.1l-.4.2v2.6h-3.5v-2.6l-.4-.2c-2.2-1-3.5-3.3-3.1-5.8.4-2.1 2-3.8 4-4.2 1.6-.3 3.2.1 4.5 1.1 1.2 1 2 2.5 2 4.1.1 2-1.2 3.9-3.1 4.8z"/><path d="M9.1 9.6c0 1.6 1.3 2.9 2.9 2.9 1.6 0 2.9-1.3 2.9-2.9 0-1.4-2.1-4.2-2.9-5.3-.5.7-2.9 3.8-2.9 5.3zm2.9 1.8c-1 0-1.8-.8-1.8-1.8 0-.4.6-1.7 1.8-3.3 1.1 1.6 1.8 2.9 1.8 3.3 0 1-.8 1.8-1.8 1.8z"/>
    </symbol>
    <symbol  viewBox="0 0 24 24" id="ideas">
        <path d="M21.7 12.5h-.6c-.1-3.9-2.2-7.2-5.2-8.7h3.8v.6c0 .2.2.4.3.4.2 0 .3-.2.3-.4v-2c.1-.2-.1-.4-.3-.4-.2 0-.3.2-.3.4V3h-6.3v-.6c0-.2-.2-.4-.4-.4h-1.9c-.2 0-.3.2-.3.4V3H4.6v-.6c0-.2-.2-.4-.4-.4s-.3.2-.3.4v2.1c0 .2.2.4.3.4.2 0 .3-.2.3-.4v-.7h3.8c-3.3 1.5-5.4 5.1-5.4 9h-.6c-.2 0-.3.2-.3.4v2.1c0 .2.2.4.3.4h1.9c.2 0 .3-.2.3-.4v-2.1c0-.2-.2-.4-.3-.4h-.6c0-4.5 3.1-8.4 7.2-8.9v.6c0 .2.2.4.3.4h.6L8.2 15v.3l1.3 3.9v2.5c0 .2.2.4.3.4h4.4c.2 0 .3-.2.3-.4v-2.5l1.6-3.9V15L12.4 4.8h.6c.2 0 .3-.2.3-.4v-.6c4 .6 6.8 4.2 7 8.7h-.6c-.2 0-.3.2-.3.4V15c0 .2.2.4.3.4h1.9c.2 0 .3-.2.3-.4v-2.1c.1-.2-.1-.4-.2-.4zm-17.8 1v1.3H2.7v-1.3h1.2zm10 7.7h-3.7v-1.8h3.7v1.8zm-1.4-7.3v-7l3 8.1-1.5 3.7h-3.9l-1.2-3.6L11.8 7v7c0 .2.2.4.3.4.2-.1.4-.3.4-.5zm.2-9.8h-1.2V2.8h1.2v1.3zm8.6 10.5h-1.2v-1.3h1.2v1.3z"/>
    </symbol>
    <symbol  viewBox="0 0 24 24" id="heart">
        <path d="M21.4 3c-1-1.2-2.4-1.9-3.9-1.9s-2.8.7-3.9 1.9L12 5.2 10.2 3c-1-1.3-2.4-2-3.8-2-1.5 0-2.9.7-3.9 1.9-2 2.5-2 6.4 0 8.8L5 15.1l6.9 8.5 6.9-8.5 2.5-3.2c2.2-2.5 2.2-6.4.1-8.9zm-1.5 7.6L12 20.4l-5.4-6.6L4 10.5C2.7 8.8 2.7 5.9 4 4.2 4.7 3.4 5.5 3 6.4 3c.8 0 1.6.4 2.2 1.2L12 8.3l3.3-4c1.3-1.5 3.4-1.5 4.6 0 1.5 1.7 1.5 4.6 0 6.3z"/>
    </symbol>
    <symbol  viewBox="0 0 24 24" id="headset">
        <path d="M20 8.8h-.3C18.8 4.8 15.6 2 12 2 8.4 2 5.2 4.8 4.3 8.8H4c-1.1 0-2 1-2 2.3v2.5c0 1.2.9 2.3 2 2.3h.2c.3 2.8 2.4 5 5 5h.5c.2.7.8 1.1 1.5 1.1h1.7c.9 0 1.6-.8 1.6-1.9 0-1-.7-1.9-1.6-1.9h-1.7c-.7 0-1.3.5-1.5 1.1h-.5c-2.1 0-3.8-1.9-3.8-4.3V9.6C6.1 6 8.9 3.5 12 3.5c3.2 0 5.9 2.6 6.6 6.1v5.5c0 .4.3.7.6.7h.8c1.1 0 2-1 2-2.3V11c0-1.2-.9-2.2-2-2.2zM4.2 14.3H4c-.4 0-.7-.4-.7-.8V11c0-.4.3-.8.7-.8h.2v4.1zm7 5.4h1.7c.2 0 .4.2.4.4s-.2.4-.4.4h-1.7c-.2 0-.4-.2-.4-.4s.2-.4.4-.4zm9.5-6.1c0 .4-.3.8-.7.8h-.2v-4.1h.2c.4 0 .7.4.7.8v2.5z"/>
    </symbol>
    <symbol  viewBox="0 0 24 24" id="clear">
       <path d="M11.6 19.5c-.4 0-.7-.1-.9-.4-.2-.2-.4-.6-.4-.9v-.1c0-.2-.2-.4-.4-.4s-.3.2-.3.4v.1c0 .8-.7 1.3-1.4 1.3-.2 0-.3.2-.3.4s.2.4.3.4c.4 0 .7.2 1 .4.3.3.4.6.4 1 0 .2.2.4.4.4s.3-.2.3-.4c0-.8.6-1.4 1.3-1.5.2 0 .3-.2.3-.4.1-.2-.1-.3-.3-.3zm-1.7.9c-.1-.1-.2-.3-.3-.4-.1-.1-.2-.2-.3-.2.2-.2.5-.4.6-.6.1.1.2.2.3.4.1.1.2.2.3.2l-.6.6zM16.4 5.1c.5 0 1 .2 1.4.6.4.4.6.9.6 1.4 0 .2.2.4.4.4s.3-.2.3-.4c0-1.1.8-2 1.9-2.1.2 0 .3-.2.3-.4s-.1-.2-.3-.2c-.5 0-1-.2-1.3-.6-.3-.4-.5-.8-.6-1.3v-.1-.1c0-.2-.2-.3-.3-.3-.2 0-.3.2-.3.4v.1c-.1 1.1-1 1.9-2 1.9-.2 0-.3.2-.3.4-.2.1 0 .3.2.3zm2.4-1.4c.1.2.3.4.4.6.2.2.3.3.5.4-.4.3-.8.6-1 1.1-.1-.2-.3-.4-.5-.6-.2-.2-.3-.3-.5-.4.4-.3.8-.6 1.1-1.1zM13.6 15.9c0 .2-.2.4-.4.4-2.6-.1-4.6-2.3-4.5-5 .1-2.6 2.2-4.7 4.8-4.6 2.6.1 4.6 2.3 4.5 5 0 .2-.2.3-.4.3s-.3-.2-.3-.4c.1-2.2-1.6-4.1-3.8-4.2-2.2-.1-4 1.7-4.1 3.9-.1 2.2 1.6 4.1 3.8 4.2.2 0 .4.2.4.4zM8.7 4.8c0 1.3-1 2.4-2.3 2.4S4.1 6.1 4.1 4.8c0-1.3 1-2.4 2.3-2.4s2.3 1 2.3 2.4zm-.7 0c0-.9-.7-1.7-1.6-1.7-.9 0-1.6.8-1.6 1.7 0 .9.7 1.7 1.6 1.7.9-.1 1.6-.8 1.6-1.7zm14 12.1c0 2.2-1.8 3.9-3.9 3.9H18c-2.1-.1-3.8-1.9-3.7-4.1s1.8-3.9 4-3.8c2.1 0 3.7 1.8 3.7 4zm-.8.1c.1-1.8-1.3-3.3-3-3.3h-.1c-.8 0-1.6.3-2.1.9-1.3 1.2-1.3 3.3-.1 4.6 1.2 1.3 3.2 1.4 4.4.2.6-.8.9-1.6.9-2.4zM8 13.9C8 15.6 6.7 17 5 17s-3-1.4-3-3.1c0-1.7 1.3-3.1 3-3.1s3 1.3 3 3.1zm-.7 0c0-1.3-1-2.4-2.3-2.4s-2.3 1.1-2.3 2.4c0 1.3 1 2.4 2.3 2.4s2.3-1.1 2.3-2.4zm6.2-5.6c-1.6-.1-2.9 1.3-2.9 3 0 .2.1.4.3.4.2 0 .3-.2.3-.3 0-1.3 1-2.3 2.2-2.3.2 0 .3-.1.4-.3 0-.3-.1-.4-.3-.5zm4.5 5.9c-1.2 0-2.2 1-2.2 2.3 0 .2.1.4.3.4.2 0 .3-.2.3-.3 0-.9.7-1.6 1.5-1.6.2 0 .3-.1.4-.3 0-.3-.1-.5-.3-.5zM4.7 12.1c-.8 0-1.5.8-1.5 1.8 0 .2.2.4.3.4.2 0 .3-.2.3-.4 0-.6.4-1.1.8-1.1.2 0 .3-.2.3-.4s0-.3-.2-.3z"/>
    </symbol>
    <symbol  viewBox="0 0 24 24" id="settings">
        <path d="M20.6 13.1l-.1-.3c.1-.6.1-1.2 0-1.7l.1-.3 1.1-.5.4-1L21 6.7l-1-.4-1.1.4-.3-.1c-.4-.4-.8-.9-1.2-1.2l-.1-.3.3-1.1-.4-1-2.6-1-1 .4-.5 1.1-.3.1c-.6-.1-1.2-.1-1.7 0l-.3-.1-.5-1.1-.9-.4-2.6 1.1-.4.9.4 1.1-.2.3-1.2 1.2-.3.1L4 6.4l-1 .4-1 2.6.4 1 1.1.5.1.3c-.1.6-.1 1.2 0 1.7l-.1.3-1.1.5-.4 1 1.1 2.6 1 .4 1.1-.4.3.1c.4.4.8.9 1.2 1.2l.1.3-.4 1.1.4 1 2.6 1 1-.4.5-1.1.3-.1c.6.1 1.2.1 1.7 0l.3.1.5 1.1 1 .4 2.6-1.1.4-1-.4-1.1.1-.3c.4-.4.9-.8 1.2-1.2l.3-.1 1.1.4 1-.4 1.1-2.6-.4-1-1.1-.5zm-.4 3.4l-.3.1-1.1-.4-.8.3-.1.1c-.4.5-.8.9-1.3 1.3l-.1.1-.3.8.4 1.1-.1.3-1.9.8-.3-.1-.5-1-.8-.4h-.1c-.6.1-1.2.1-1.8 0H11l-.8.4-.5 1-.3.1-1.9-.8-.1-.3.4-1.1-.3-.8-.1-.1c-.5-.4-.9-.8-1.3-1.3l-.1-.1-.8-.3-1.1.4-.3-.1-.8-1.9.1-.3.9-.4.2-.1.3-.8v-.1c-.1-.6-.1-1.2 0-1.8V11l-.4-.8-1-.5-.1-.3.8-1.9.3-.1 1.1.4.8-.3.1-.1c.4-.5.8-.9 1.3-1.3l.1-.1.3-.8-.4-1.1.1-.3L9.4 3l.3.1.5 1 .8.4h.1c.6-.1 1.2-.1 1.8 0h.1l.8-.4.5-1 .3-.1 1.9.8.1.3-.4 1.1.3.8.1.1c.5.4.9.8 1.3 1.3l.1.1.8.3 1.1-.4.3.1.8 1.9-.1.3-1 .5-.4.8v.1c.1.6.1 1.2 0 1.8v.1l.4.8 1 .5.1.3-.8 1.9zM12 6.8c-2.8 0-5.2 2.3-5.2 5.2 0 2.8 2.3 5.2 5.2 5.2 2.8 0 5.2-2.3 5.2-5.2 0-2.9-2.4-5.2-5.2-5.2zm0 9.4c-2.3 0-4.2-1.9-4.2-4.2 0-2.3 1.9-4.2 4.2-4.2s4.2 1.9 4.2 4.2c0 2.3-1.9 4.2-4.2 4.2z"/>
    </symbol>
    <symbol  viewBox="0 0 24 24" id="design">
        <path d="M18 11.9h-.5v-.8c0-.4-.3-.8-.8-.9L18 7.4c.4-.1.8-.2 1.1-.5.7-.7 1-1.8.7-2.8-.3-1.3-1.4-2.2-2.8-2.5-.2 0-.4 0-.5.2-.1.2-.1.4 0 .6.4.6.3.9-.4 1.6-.2.2-.4.5-.5.7-.2.4-.3.9-.1 1.4.1.3.3.5.5.7l-2.2 3.4h-.2V2.4c0-.5-.4-.9-1-.9h-3c-.6 0-1 .4-1 .9v7.8h-.3L5.9 6.5c0-.1-.1-.1-.2-.2L3.2 5c-.1-.1-.3 0-.5.1s-.2.3-.2.5L3 8.2c0 .1 0 .1.1.2l1.1 1.9c-.4.1-.7.5-.7.9v9.1c0 1.2 1.1 2.2 2.5 2.2h9c1.4 0 2.5-1 2.5-2.2v-2.1h.5c1.9 0 3.5-1.4 3.5-3.1 0-1.8-1.6-3.2-3.5-3.2zm-1.5-6.8c.1-.1.2-.3.4-.5.4-.4.9-1 .9-1.7.6.3.9.8 1.1 1.4.2.7 0 1.4-.4 1.8-.3.3-.8.4-1.4.2H17c-.3-.1-.5-.3-.5-.5-.2-.3-.1-.5 0-.7zm.3 2.1h.1l-1.3 2.9h-.8l2-2.9zM9.5 2.5h3v.7H11c-.3 0-.5.2-.5.5s.2.5.5.5h1.5V5H12c-.3 0-.5.2-.5.5s.2.5.5.5h.5v.7H11c-.3 0-.5.2-.5.5s.2.5.5.5h1.5v.7H12c-.3 0-.5.2-.5.5s.2.5.5.5h.5v.7h-3V2.5zm-4.2 7.7l-1.1-2 1.2-.8 1.7 2.7H5.3zm-.8-3.4l-.6.5-.2-.9.8.4zm12 13.5c0 .7-.7 1.2-1.5 1.2H6c-.8 0-1.5-.6-1.5-1.2v-9.1H13.8c.1 0 .1.1.2.1s.1 0 .2-.1H16c.1 0 .1 0 .2-.1h.3v9.2zm1.5-3.1h-.5V13h.5c1.4 0 2.5.9 2.5 2.1 0 1.1-1.1 2.1-2.5 2.1z"/>
    </symbol>
</svg>


