<?xml version="1.0" encoding="utf-8"?>
<!-- Generator: Adobe Illustrator 22.0.1, SVG Export Plug-In . SVG Version: 6.00 Build 0)  -->
<svg version="1.1" id="Layer_1" xmlns="http://www.w3.org/2000/svg" xmlns:xlink="http://www.w3.org/1999/xlink" x="0px" y="0px"
	 viewBox="0 0 150 100" style="enable-background:new 0 0 150 100;" xml:space="preserve">
<g>
	<path d="M14.3,46c-1.2,0-2.1,1.2-2.1,2.8s1,2.8,2.1,2.8c1.2,0,2.1-1.2,2.1-2.8C16.5,47.2,15.5,46,14.3,46z"/>
	<path d="M96.3,51.2l4.1,2.3c-1.5,3.6-4.3,5-6.6,5c-3.6,0-7.2-2.5-7.2-7.6v-7.7c0-5,3.6-7.6,7.3-7.6c2.3,0,5,1.2,6.4,5.1l-3.8,1.9
		c-1.2-2.8-5.3-2.1-5.3,0.6v7.7C91.1,53.5,95.3,54.3,96.3,51.2z M116.8,43.2v7.6c0,5.1-3.8,7.7-7.6,7.7c-3.8,0-7.6-2.6-7.6-7.7v-7.6
		c0-5.2,3.8-7.7,7.6-7.7S116.8,38,116.8,43.2z M112.2,43.2c0-1.7-1.5-2.5-3-2.5c-1.4,0-2.9,0.9-2.9,2.5v7.6c0,1.7,1.5,2.4,3,2.4
		c1.5,0,3-0.8,3-2.4V43.2z M21.9,46c-1.2,0-2.1,1.2-2.1,2.8s1,2.8,2.1,2.8c1.2,0,2.1-1.2,2.1-2.8S23,46,21.9,46z M78.6,44.2
		c-1.4-0.4-2.4-1-2.4-2.1c0.1-2.6,3.4-2.7,5.3-0.2l3-2.8c-1.9-2.8-4.1-3.6-6.3-3.6c-3.4,0-6.6,2.3-6.6,6.7c0,4.3,2.7,6.6,5.6,7.1
		c1.5,0.3,3.2,1,3.1,2.2c-0.1,2.4-4.2,2.3-6-0.5l-2.9,3.4c1.7,2.7,4.1,4.1,6.2,4.1c3.4,0,7.1-2.4,7.3-6.7
		C85.2,46.3,81.9,44.9,78.6,44.2z M142.9,35.8H136v9.4l4.6,5v-9.1h2.4c1.6,0,2.3,0.9,2.3,2.4v7c0,1.5-0.7,2.4-2.3,2.4h-7v5.3h6.9
		c3.7,0,7.1-2.2,7.1-7.4v-7.5C150,38.1,146.5,35.8,142.9,35.8z M129.8,50.5l5,7.7h-5.8l-4.3-7.1H124v7.1h-4.7V35.8h7.3
		c3.8,0,6.7,2.1,6.8,7.4C133.4,47.3,132.1,49.7,129.8,50.5z M126.7,41.1H124v5.1h2.7C129.6,46.2,129.6,41.1,126.7,41.1z M64.8,58.2
		h4.6V35.8h-4.6V58.2z M36.2,30.2V75l-4.5-4.7l-2.5-2.8l-2.6-3l1.1,4.6H4.2C1.9,69.1,0,66.8,0,64V30.2C0,27.3,1.9,25,4.2,25h27.7
		C34.3,25,36.2,27.3,36.2,30.2z M30.3,53.9c0-8-3-14.6-3-14.6c-3-2.7-5.8-2.6-5.8-2.6l-0.3,0.4c3.5,1.3,5.1,3.2,5.1,3.2
		c-2.1-1.4-4.3-2.1-6.2-2.4c-1.5-0.2-2.9-0.2-4.2,0.1c-0.1,0-0.2,0-0.4,0.1c-0.7,0.1-2.5,0.4-4.7,1.6c-0.8,0.4-1.2,0.7-1.2,0.7
		s1.7-2,5.4-3.3l-0.2-0.3c0,0-2.8-0.1-5.8,2.6c0,0-3,6.5-3,14.6c0,0,1.7,3.6,6.3,3.8c0,0,0.8-1.1,1.4-2.1c-2.6-1-3.6-3-3.6-3
		s0.2,0.2,0.6,0.4c0,0,0,0,0.1,0.1c0.1,0.1,0.1,0.1,0.2,0.1c0.5,0.4,1,0.6,1.5,0.9c0.8,0.4,1.9,0.8,3,1.1c1.6,0.4,3.4,0.5,5.4,0
		c1-0.2,2-0.6,3-1.1c0.7-0.3,1.5-0.8,2.4-1.5c0,0-1,2-3.7,3c0.6,0.9,1.4,2,1.4,2C28.5,57.5,30.3,53.8,30.3,53.9z M55.2,35.8h-6.9
		v9.4l4.6,5v-9.1h2.4c1.6,0,2.3,0.9,2.3,2.4v7c0,1.5-0.7,2.4-2.3,2.4h-7v5.3h6.9c3.7,0,7.1-2.2,7.1-7.4v-7.5
		C62.3,38.1,58.9,35.8,55.2,35.8z"/>
</g>
</svg>
